<?xml version="1.0" encoding="UTF-8" standalone="no"?>
<svg
   xmlns:dc="http://purl.org/dc/elements/1.1/"
   xmlns:cc="http://creativecommons.org/ns#"
   xmlns:rdf="http://www.w3.org/1999/02/22-rdf-syntax-ns#"
   xmlns:svg="http://www.w3.org/2000/svg"
   xmlns="http://www.w3.org/2000/svg"
   xmlns:sodipodi="http://sodipodi.sourceforge.net/DTD/sodipodi-0.dtd"
   xmlns:inkscape="http://www.inkscape.org/namespaces/inkscape"
   version="1.1"
   width="297mm"
   height="210mm"
   viewBox="0 0 1052.3631 744.09512"
   id="svg2"
   inkscape:version="0.91 r13725"
   sodipodi:docname="caseplans-2.svg">
  <metadata
     id="metadata32">
    <rdf:RDF>
      <cc:Work
         rdf:about="">
        <dc:format>image/svg+xml</dc:format>
        <dc:type
           rdf:resource="http://purl.org/dc/dcmitype/StillImage" />
        <dc:title></dc:title>
      </cc:Work>
    </rdf:RDF>
  </metadata>
  <defs
     id="defs30" />
  <sodipodi:namedview
     pagecolor="#ffffff"
     bordercolor="#666666"
     borderopacity="1"
     objecttolerance="10"
     gridtolerance="10"
     guidetolerance="10"
     inkscape:pageopacity="0"
     inkscape:pageshadow="2"
     inkscape:window-width="1440"
     inkscape:window-height="790"
     id="namedview28"
     showgrid="true"
     inkscape:document-units="mm"
     inkscape:zoom="1.4"
     inkscape:cx="517.40852"
     inkscape:cy="203.64499"
     inkscape:window-x="0"
     inkscape:window-y="0"
     inkscape:window-maximized="0"
     inkscape:current-layer="svg2"
     inkscape:snap-global="false">
    <inkscape:grid
       type="xygrid"
       id="grid4160"
       units="mm"
       spacingx="3.5433102"
       spacingy="3.5433101" />
  </sodipodi:namedview>
  <!-- Front-->
  <g
     transform="translate(18.500014,198.27184)"
     id="g4">
    <polygon
       style="fill:none;stroke:#000000;stroke-width:0.90000075"
       points="118.70088,0 143.50405,0 143.50405,12.755916 178.05133,12.755916 178.05133,0 212.5986,0 212.5986,25.511832 199.84268,25.511832 199.84268,51.023664 212.5986,51.023664 212.5986,76.535496 199.84268,76.535496 199.84268,102.04733 212.5986,102.04733 212.5986,127.55916 178.05133,127.55916 178.05133,114.80324 143.50405,114.80324 143.50405,127.55916 118.70088,127.55916 118.70088,114.80324 93.897715,114.80324 93.897715,127.55916 69.094545,127.55916 69.094545,114.80324 34.547272,114.80324 34.547272,127.55916 0,127.55916 0,102.04733 12.755916,102.04733 12.755916,76.535496 0,76.535496 0,51.023664 12.755916,51.023664 12.755916,25.511832 0,25.511832 0,0 34.547272,0 34.547272,12.755916 69.094545,12.755916 69.094545,0 93.897715,0 93.897715,12.755916 118.70088,12.755916 "
       id="polygon6" />
  </g>
  <!-- Back-->
  <!-- Left-->
  <g
     transform="translate(451.69722,198.27184)"
     id="g12">
    <polygon
       style="fill:none;stroke:#000000;stroke-width:0.90000075"
       points="132.87412,0 157.6773,0 157.6773,12.755916 182.48047,12.755916 182.48047,0 207.28364,0 207.28364,12.755916 232.08681,12.755916 232.08681,0 256.88998,0 256.88998,12.755916 281.69315,12.755916 281.69315,0 306.49631,0 306.49631,12.755916 348.13021,12.755916 348.13021,0 377.00818,0 377.00818,25.511832 389.7641,25.511832 389.7641,51.023664 377.00818,51.023664 377.00818,76.535496 389.7641,76.535496 389.7641,102.04733 377.00818,102.04733 377.00818,127.55916 348.13021,127.55916 348.13021,114.80324 306.49631,114.80324 306.49631,127.55916 281.69315,127.55916 281.69315,114.80324 256.88998,114.80324 256.88998,127.55916 232.08681,127.55916 232.08681,114.80324 207.28364,114.80324 207.28364,127.55916 182.48047,127.55916 182.48047,114.80324 157.6773,114.80324 157.6773,127.55916 132.87412,127.55916 132.87412,114.80324 108.07095,114.80324 108.07095,127.55916 83.267785,127.55916 83.267785,114.80324 41.633893,114.80324 41.633893,127.55916 12.755916,127.55916 12.755916,102.04733 0,102.04733 0,76.535496 12.755916,76.535496 12.755916,51.023664 0,51.023664 0,25.511832 12.755916,25.511832 12.755916,0 41.633893,0 41.633893,12.755916 83.267785,12.755916 83.267785,0 108.07095,0 108.07095,12.755916 132.87412,12.755916 "
       id="polygon14" />
  </g>
  <!-- Right-->
  <g
     transform="translate(453.69722,331.83101)"
     id="g16">
    <polygon
       style="fill:none;stroke:#000000;stroke-width:0.90000075"
       points="108.07095,12.755916 132.87412,12.755916 132.87412,0 157.6773,0 157.6773,12.755916 182.48047,12.755916 182.48047,0 207.28364,0 207.28364,12.755916 232.08681,12.755916 232.08681,0 256.88998,0 256.88998,12.755916 281.69315,12.755916 281.69315,0 306.49631,0 306.49631,12.755916 348.13021,12.755916 348.13021,0 377.00818,0 377.00818,25.511832 389.7641,25.511832 389.7641,51.023664 377.00818,51.023664 377.00818,76.535496 389.7641,76.535496 389.7641,102.04733 377.00818,102.04733 377.00818,127.55916 348.13021,127.55916 348.13021,114.80324 306.49631,114.80324 306.49631,127.55916 281.69315,127.55916 281.69315,114.80324 256.88998,114.80324 256.88998,127.55916 232.08681,127.55916 232.08681,114.80324 207.28364,114.80324 207.28364,127.55916 182.48047,127.55916 182.48047,114.80324 157.6773,114.80324 157.6773,127.55916 132.87412,127.55916 132.87412,114.80324 108.07095,114.80324 108.07095,127.55916 83.267785,127.55916 83.267785,114.80324 41.633893,114.80324 41.633893,127.55916 12.755916,127.55916 12.755916,102.04733 0,102.04733 0,76.535496 12.755916,76.535496 12.755916,51.023664 0,51.023664 0,25.511832 12.755916,25.511832 12.755916,0 41.633893,0 41.633893,12.755916 83.267785,12.755916 83.267785,0 108.07095,0 "
       id="polygon18" />
  </g>
  <!-- Top-->
  <g
     transform="translate(18.500014,331.83101)"
     id="g20">
    <polygon
       style="fill:none;stroke:#000000;stroke-width:0.90000075"
       points="93.897715,12.755916 93.897715,0 118.70088,0 118.70088,12.755916 143.50405,12.755916 143.50405,0 178.05133,0 178.05133,12.755916 199.84268,12.755916 199.84268,41.633893 212.5986,41.633893 212.5986,83.267785 199.84268,83.267785 199.84268,108.07095 212.5986,108.07095 212.5986,132.87412 199.84268,132.87412 199.84268,157.6773 212.5986,157.6773 212.5986,182.48047 199.84268,182.48047 199.84268,207.28364 212.5986,207.28364 212.5986,232.08681 199.84268,232.08681 199.84268,256.88998 212.5986,256.88998 212.5986,281.69315 199.84268,281.69315 199.84268,306.49631 212.5986,306.49631 212.5986,348.13021 199.84268,348.13021 199.84268,377.00818 178.05133,377.00818 178.05133,389.7641 143.50405,389.7641 143.50405,377.00818 118.70088,377.00818 118.70088,389.7641 93.897715,389.7641 93.897715,377.00818 69.094545,377.00818 69.094545,389.7641 34.547272,389.7641 34.547272,377.00818 12.755916,377.00818 12.755916,348.13021 0,348.13021 0,306.49631 12.755916,306.49631 12.755916,281.69315 0,281.69315 0,256.88998 12.755916,256.88998 12.755916,232.08681 0,232.08681 0,207.28364 12.755916,207.28364 12.755916,182.48047 0,182.48047 0,157.6773 12.755916,157.6773 12.755916,132.87412 0,132.87412 0,108.07095 12.755916,108.07095 12.755916,83.267785 0,83.267785 0,41.633893 12.755916,41.633893 12.755916,12.755916 34.547272,12.755916 34.547272,0 69.094545,0 69.094545,12.755916 "
       id="polygon22" />
  </g>
  <!-- Bottom-->
  <g
     transform="translate(235.09862,331.83101)"
     id="g24">
    <polygon
       style="fill:none;stroke:#000000;stroke-width:0.90000075"
       points="69.094545,0 69.094545,12.755916 93.897715,12.755916 93.897715,0 118.70088,0 118.70088,12.755916 143.50405,12.755916 143.50405,0 178.05133,0 178.05133,12.755916 199.84268,12.755916 199.84268,41.633893 212.5986,41.633893 212.5986,83.267785 199.84268,83.267785 199.84268,108.07095 212.5986,108.07095 212.5986,132.87412 199.84268,132.87412 199.84268,157.6773 212.5986,157.6773 212.5986,182.48047 199.84268,182.48047 199.84268,207.28364 212.5986,207.28364 212.5986,232.08681 199.84268,232.08681 199.84268,256.88998 212.5986,256.88998 212.5986,281.69315 199.84268,281.69315 199.84268,306.49631 212.5986,306.49631 212.5986,348.13021 199.84268,348.13021 199.84268,377.00818 178.05133,377.00818 178.05133,389.7641 143.50405,389.7641 143.50405,377.00818 118.70088,377.00818 118.70088,389.7641 93.897715,389.7641 93.897715,377.00818 69.094545,377.00818 69.094545,389.7641 34.547272,389.7641 34.547272,377.00818 12.755916,377.00818 12.755916,348.13021 0,348.13021 0,306.49631 12.755916,306.49631 12.755916,281.69315 0,281.69315 0,256.88998 12.755916,256.88998 12.755916,232.08681 0,232.08681 0,207.28364 12.755916,207.28364 12.755916,182.48047 0,182.48047 0,157.6773 12.755916,157.6773 12.755916,132.87412 0,132.87412 0,108.07095 12.755916,108.07095 12.755916,83.267785 0,83.267785 0,41.633893 12.755916,41.633893 12.755916,12.755916 34.547272,12.755916 34.547272,0 "
       id="polygon26" />
  </g>
  <g
     id="g4179"
     transform="translate(-6.8345512,51.20128)">
    <circle
       r="7.5372829"
       cy="454.07477"
       cx="131.63387"
       id="path4173"
       style="fill:none;fill-opacity:1;stroke:#ff0000;stroke-width:0.87033057;stroke-miterlimit:4;stroke-dasharray:none;stroke-opacity:1" />
    <circle
       style="fill:none;fill-opacity:1;stroke:#ff0000;stroke-width:0.87033057;stroke-miterlimit:4;stroke-dasharray:none;stroke-opacity:1"
       id="circle4177"
       cx="131.63387"
       cy="496.94879"
       r="7.5372829" />
  </g>
  <g
     id="g4193"
     transform="translate(-22.247935,-16.653059)">
    <ellipse
       ry="4.348608"
       rx="4.3486085"
       cy="443.79919"
       cx="82.381897"
       id="path4183"
       style="fill:none;fill-opacity:1;stroke:#ff0000;stroke-width:0.86972165;stroke-miterlimit:4;stroke-dasharray:none;stroke-opacity:1" />
    <ellipse
       style="fill:none;fill-opacity:1;stroke:#ff0000;stroke-width:0.86972165;stroke-miterlimit:4;stroke-dasharray:none;stroke-opacity:1"
       id="ellipse4187"
       cx="211.7126"
       cy="443.79919"
       rx="4.3486085"
       ry="4.348608" />
    <ellipse
       ry="4.348608"
       rx="4.3486085"
       cy="642.93304"
       cx="211.7126"
       id="ellipse4189"
       style="fill:none;fill-opacity:1;stroke:#ff0000;stroke-width:0.86972165;stroke-miterlimit:4;stroke-dasharray:none;stroke-opacity:1" />
    <ellipse
       style="fill:none;fill-opacity:1;stroke:#ff0000;stroke-width:0.86972165;stroke-miterlimit:4;stroke-dasharray:none;stroke-opacity:1"
       id="ellipse4191"
       cx="82.381897"
       cy="642.93304"
       rx="4.3486085"
       ry="4.348608" />
  </g>
  <g
     id="g4219">
    <rect
       ry="4.3911486"
       y="349.936"
       x="254.97527"
       height="353.55414"
       width="172.84532"
       id="rect4199"
       style="fill:none;fill-opacity:1;stroke:#ff0000;stroke-width:0.7768895;stroke-miterlimit:4;stroke-dasharray:none;stroke-opacity:1" />
    <g
       id="g4213">
      <ellipse
         style="fill:none;fill-opacity:1;stroke:#ff0000;stroke-width:0.34139079;stroke-miterlimit:4;stroke-dasharray:none;stroke-opacity:1"
         id="path4201"
         cx="259.90179"
         cy="354.86252"
         rx="1.6009599"
         ry="1.6009598" />
      <ellipse
         ry="1.6009598"
         rx="1.6009599"
         cy="354.86252"
         cx="422.89407"
         id="ellipse4207"
         style="fill:none;fill-opacity:1;stroke:#ff0000;stroke-width:0.34139079;stroke-miterlimit:4;stroke-dasharray:none;stroke-opacity:1" />
      <ellipse
         style="fill:none;fill-opacity:1;stroke:#ff0000;stroke-width:0.34139079;stroke-miterlimit:4;stroke-dasharray:none;stroke-opacity:1"
         id="ellipse4209"
         cx="422.89407"
         cy="698.5636"
         rx="1.6009599"
         ry="1.6009598" />
      <ellipse
         ry="1.6009598"
         rx="1.6009599"
         cy="698.5636"
         cx="259.90179"
         id="ellipse4211"
         style="fill:none;fill-opacity:1;stroke:#ff0000;stroke-width:0.34139079;stroke-miterlimit:4;stroke-dasharray:none;stroke-opacity:1" />
    </g>
  </g>
  <g
     transform="translate(235.09862,198.27184)"
     id="g8">
    <polygon
       style="fill:none;stroke:#000000;stroke-width:0.90000075"
       points="118.70088,0 143.50405,0 143.50405,12.755916 178.05133,12.755916 178.05133,0 212.5986,0 212.5986,25.511832 199.84268,25.511832 199.84268,51.023664 212.5986,51.023664 212.5986,76.535496 199.84268,76.535496 199.84268,102.04733 212.5986,102.04733 212.5986,127.55916 178.05133,127.55916 178.05133,114.80324 143.50405,114.80324 143.50405,127.55916 118.70088,127.55916 118.70088,114.80324 93.897715,114.80324 93.897715,127.55916 69.094545,127.55916 69.094545,114.80324 34.547272,114.80324 34.547272,127.55916 0,127.55916 0,102.04733 12.755916,102.04733 12.755916,76.535496 0,76.535496 0,51.023664 12.755916,51.023664 12.755916,25.511832 0,25.511832 0,0 34.547272,0 34.547272,12.755916 69.094545,12.755916 69.094545,0 93.897715,0 93.897715,12.755916 118.70088,12.755916 "
       id="polygon10" />
  </g>
  <g
     id="g4272"
     transform="translate(-3.4082033e-7,28.658058)">
    <g
       transform="translate(26.043596,-30.535742)"
       id="g4235">
      <circle
         style="fill:none;fill-opacity:1;stroke:#ff0000;stroke-width:0.64423829;stroke-miterlimit:4;stroke-dasharray:none;stroke-opacity:1"
         id="path4227"
         cx="297.28345"
         cy="251.92909"
         r="3.2211912" />
      <circle
         r="3.2211912"
         cy="251.92909"
         cx="315.35431"
         id="circle4231"
         style="fill:none;fill-opacity:1;stroke:#ff0000;stroke-width:0.64423829;stroke-miterlimit:4;stroke-dasharray:none;stroke-opacity:1" />
      <circle
         style="fill:none;fill-opacity:1;stroke:#ff0000;stroke-width:0.64423829;stroke-miterlimit:4;stroke-dasharray:none;stroke-opacity:1"
         id="circle4233"
         cx="333.4252"
         cy="251.92909"
         r="3.2211912" />
    </g>
    <g
       id="g4256"
       transform="translate(26.043596,-18.53573)">
      <circle
         r="3.2211912"
         cy="251.92909"
         cx="297.28345"
         id="circle4258"
         style="fill:none;fill-opacity:1;stroke:#ff0000;stroke-width:0.64423829;stroke-miterlimit:4;stroke-dasharray:none;stroke-opacity:1" />
      <circle
         style="fill:none;fill-opacity:1;stroke:#ff0000;stroke-width:0.64423829;stroke-miterlimit:4;stroke-dasharray:none;stroke-opacity:1"
         id="circle4260"
         cx="315.35431"
         cy="251.92909"
         r="3.2211912" />
      <circle
         r="3.2211912"
         cy="251.92909"
         cx="333.4252"
         id="circle4262"
         style="fill:none;fill-opacity:1;stroke:#ff0000;stroke-width:0.64423829;stroke-miterlimit:4;stroke-dasharray:none;stroke-opacity:1" />
    </g>
    <g
       transform="translate(26.043596,-6.5357184)"
       id="g4264">
      <circle
         style="fill:none;fill-opacity:1;stroke:#ff0000;stroke-width:0.64423829;stroke-miterlimit:4;stroke-dasharray:none;stroke-opacity:1"
         id="circle4266"
         cx="297.28345"
         cy="251.92909"
         r="3.2211912" />
      <circle
         r="3.2211912"
         cy="251.92909"
         cx="315.35431"
         id="circle4268"
         style="fill:none;fill-opacity:1;stroke:#ff0000;stroke-width:0.64423829;stroke-miterlimit:4;stroke-dasharray:none;stroke-opacity:1" />
      <circle
         style="fill:none;fill-opacity:1;stroke:#ff0000;stroke-width:0.64423829;stroke-miterlimit:4;stroke-dasharray:none;stroke-opacity:1"
         id="circle4270"
         cx="333.4252"
         cy="251.92909"
         r="3.2211912" />
    </g>
  </g>
  <g
     id="g4288"
     transform="matrix(0,0.99999994,-1.0000001,0,1174.4521,230.16601)">
    <rect
       style="fill:none;fill-opacity:1;stroke:#ff0000;stroke-width:0.72637862;stroke-miterlimit:4;stroke-dasharray:none;stroke-opacity:1"
       id="rect4205"
       width="158.72333"
       height="335.88882"
       x="262.03625"
       y="358.76865"
       ry="0" />
    <rect
       y="345.13391"
       x="248.53949"
       height="362.9213"
       width="185.77823"
       id="rect4286"
       style="fill:none;fill-opacity:1;stroke:#ff0000;stroke-width:0.71229088;stroke-miterlimit:4;stroke-dasharray:none;stroke-opacity:1" />
  </g>
</svg>
